<svg xmlns="http://www.w3.org/2000/svg" xmlns:xlink="http://www.w3.org/1999/xlink">
	<!-- icons taken from https://github.com/xtoolkit/Micon -->
	<symbol id="svg_smile" viewBox="256 -2048 2248 2510">
		<path transform="scale(1, -1) translate(0, 0)"
			d="M1406 1869q159 0 306 -41t274.5 -116t232.5 -180t180 -232.5t116 -274.5t41 -306t-41 -306t-116 -274.5t-180 -232.5t-232.5 -180t-274.5 -116t-306 -41t-306 41t-274.5 116t-232.5 180t-180 232.5t-116 274.5t-41 306t41 306t116 274.5t180 232.5t232.5 180t274.5 116 t306 41zM1406 -287q139 0 267.5 36t240.5 101.5t203.5 157t157 203.5t101.5 240.5t36 267.5t-36 267.5t-101.5 240.5t-157 203.5t-203.5 157t-240.5 101.5t-267.5 36t-267.5 -36t-240.5 -101.5t-203.5 -157t-157 -203.5t-101.5 -240.5t-36 -267.5t36 -267.5t101.5 -240.5 t157 -203.5t203.5 -157t240.5 -101.5t267.5 -36zM1011 791q-23 0 -42.5 8.5t-34 23t-23 34t-8.5 42.5v143q0 22 8.5 42t23 34.5t34 23t42.5 8.5q22 0 41.5 -8.5t34.5 -23.5t23.5 -34.5t8.5 -41.5v-143q0 -22 -8.5 -41.5t-23.5 -34.5t-34.5 -23.5t-41.5 -8.5zM1801 1150 q22 0 42 -8.5t34.5 -23t23 -34.5t8.5 -42v-143q0 -23 -8.5 -42.5t-23 -34t-34.5 -23t-42 -8.5q-23 0 -42.5 8.5t-33.5 23.5t-22.5 34.5t-8.5 41.5v143q0 22 8.5 41.5t22.5 34.5t33.5 23.5t42.5 8.5zM1406 288q80 0 166 21.5t155 63.5q12 7 25.5 17t28 19.5t29 16t28.5 6.5 q29 0 50 -21.5t21 -50.5q0 -20 -7.5 -32.5t-21.5 -25.5q-39 -39 -97.5 -68.5t-124.5 -49.5t-132 -30t-120 -10t-120 10t-132 30t-124.5 49.5t-97.5 68.5q-14 13 -21.5 25.5t-7.5 32.5q0 29 21.5 50t50.5 21q13 0 28 -6.5t29.5 -15.5t28 -19t24.5 -17q69 -43 154.5 -64 t166.5 -21z" />
	</symbol>
	<symbol id="svg_meh" viewBox="256 -2048 2248 2510">
		<path transform="scale(1, -1) translate(0, 0)"
			d="M1406 1869q159 0 306 -41t274.5 -116t232.5 -180t180 -232.5t116 -274.5t41 -306t-41 -306t-116 -274.5t-180 -232.5t-232.5 -180t-274.5 -116t-306 -41t-306 41t-274.5 116t-232.5 180t-180 232.5t-116 274.5t-41 306t41 306t116 274.5t180 232.5t232.5 180t274.5 116 t306 41zM1406 -287q139 0 267.5 36t240.5 101.5t203.5 157t157 203.5t101.5 240.5t36 267.5t-36 267.5t-101.5 240.5t-157 203.5t-203.5 157t-240.5 101.5t-267.5 36t-267.5 -36t-240.5 -101.5t-203.5 -157t-157 -203.5t-101.5 -240.5t-36 -267.5t36 -267.5t101.5 -240.5 t157 -203.5t203.5 -157t240.5 -101.5t267.5 -36zM1011 1150q22 0 41.5 -8.5t34.5 -23.5t23.5 -34.5t8.5 -41.5v-143q0 -22 -8.5 -41.5t-23.5 -34.5t-34.5 -23.5t-41.5 -8.5q-23 0 -42.5 8.5t-34 23t-23 34t-8.5 42.5v143q0 22 8.5 42t23 34.5t34 23t42.5 8.5zM1801 1150 q22 0 42 -8.5t34.5 -23t23 -34.5t8.5 -42v-143q0 -23 -8.5 -42.5t-23 -34t-34.5 -23t-42 -8.5q-23 0 -42.5 8.5t-33.5 23.5t-22.5 34.5t-8.5 41.5v143q0 22 8.5 41.5t22.5 34.5t33.5 23.5t42.5 8.5zM1909 360h-1006q-29 0 -50.5 21t-21.5 50q0 30 21 51t51 21h1006 q30 0 51 -21t21 -51q0 -29 -21.5 -50t-50.5 -21z" />
	</symbol>
	<symbol id="svg_frown" viewBox="256 -2048 2248 2510">
		<path transform="scale(1, -1) translate(0, 0)"
			d="M1406 1869q159 0 306 -41t274.5 -116t232.5 -180t180 -232.5t116 -274.5t41 -306t-41 -306t-116 -274.5t-180 -232.5t-232.5 -180t-274.5 -116t-306 -41t-306 41t-274.5 116t-232.5 180t-180 232.5t-116 274.5t-41 306t41 306t116 274.5t180 232.5t232.5 180t274.5 116 t306 41zM1406 -287q139 0 267.5 36t240.5 101.5t203.5 157t157 203.5t101.5 240.5t36 267.5t-36 267.5t-101.5 240.5t-157 203.5t-203.5 157t-240.5 101.5t-267.5 36t-267.5 -36t-240.5 -101.5t-203.5 -157t-157 -203.5t-101.5 -240.5t-36 -267.5t36 -267.5t101.5 -240.5 t157 -203.5t203.5 -157t240.5 -101.5t267.5 -36zM975 253q0 20 9 33t23 26q34 30 84 52.5t105 37t110.5 22t99.5 7.5t99.5 -7.5t110.5 -22t105 -37t84 -52.5q14 -13 23 -26t9 -33q0 -29 -21.5 -50.5t-50.5 -21.5q-12 0 -20.5 3.5t-19.5 8.5l-14 7q-40 20 -74.5 36t-70 27.5 t-74 18t-86.5 6.5q-47 0 -84.5 -6t-71 -17t-67 -26t-71.5 -34l-25 -12q-11 -2 -20 -7t-20 -5q-30 0 -51 21t-21 51zM1119 827q0 -22 -8.5 -41.5t-23.5 -34.5t-34.5 -23.5t-41.5 -8.5q-23 0 -42.5 8.5t-34 23t-23 34t-8.5 42.5v144q0 22 8.5 42t23.5 34t34.5 22.5t41.5 8.5 t41.5 -8.5t34.5 -23t23.5 -34t8.5 -41.5v-144zM1801 1078q22 0 41.5 -8.5t34.5 -22.5t23.5 -34t8.5 -42v-144q0 -23 -8.5 -42.5t-23 -34t-34.5 -23t-42 -8.5q-23 0 -42.5 8.5t-33.5 23.5t-22.5 34.5t-8.5 41.5v144q0 22 8.5 41.5t23 34t34 23t41.5 8.5z" />
	</symbol>
	<symbol id="svg_thumbs-up" viewBox="0 0 2048 2048">
		<path transform="scale(1, 1) translate(0, 0)"
			d="M1856 640q39 0 74 15t61.5 41 41.5 61 15 75q0 32-10 61l-256 768q-10 29-28 53.5t-42 41.5-52.5 26.5-59.5 9.5h-512q-179 0-345-69-72-29-144.5-44T448 1664H0V768h417q65 0 122.5-24T643 674l622-621q25-25 50-39t61-14q33 0 62 12.5t51 34.5 34.5 51 12.5 62q0 81-18 154.5T1465 460q-20 43-34 87.5t-19 92.5h444zm-256 1024q20 0 37-12t24-32q5-14 18.5-54t32.5-96.5 42-124 46-136.5 44.5-134.5 38.5-118 27-86 10-38.5q0-26-19-45t-45-19h-576q0-53 2.5-98.5t10-88.5 21.5-86 37-91q28-58 42.5-118.5T1408 160q0-14-9-23t-23-9q-6 0-10.5 4.5l-8.5 8.5-623 624q-32 32-68.5 56T588 862q-80 34-171 34H128v640h320q178 0 345 69 144 59 295 59h512z" />
	</symbol>
	<symbol id="svg_heart" viewBox="0 0 2048 2048">
		<path transform="scale(1, 1) translate(0, 0)"
			d="M1504 128q113 0 212 43t173 116.5 116.5 173T2048 672q0 109-41.5 209T1889 1057l-865 864-865-864Q83 981 41.5 881T0 672q0-112 42.5-211.5t116.5-173T332 171t212-43q83 0 148 19t120.5 52.5 106 80.5T1024 383q55-56 105.5-103t106-80.5T1356 147t148-19zm294 838q59-59 90-135t31-159q0-87-32-162.5t-88.5-131-132-87T1504 260q-84 0-149 26.5T1235 356t-105.5 97.5T1024 564q-54-54-105-109t-106.5-99-121-72T544 256q-86 0-162 32.5t-132.5 89-89 132.5T128 672q0 83 31.5 159T250 966l774 774z" />
	</symbol>
	<symbol id="svg_navigation" viewBox="0 0 2048 2048">
		<path
			d="M1029 128q123 0 236.5 32t212.5 90 180.5 139.5T1798 570t90 212.5 32 236.5-32 236.5-90 212.5-139.5 180.5T1478 1788t-212.5 90-236.5 32-236.5-32-212.5-90-180.5-139.5T260 1468t-90-212.5-32-236.5 32-236.5T260 570t139.5-180.5T580 250t212.5-90 236.5-32zm0 1654q105 0 202.5-27.5t182.5-77 154.5-119 119-154.5 77-182.5T1792 1019t-27.5-202.5-77-182T1568 480t-154.5-119.5-182-77T1029 256t-202.5 27.5-182.5 77-154.5 119-119 154.5-77 182.5T266 1019t27.5 202.5 77 182.5 119 154.5 154.5 119 182.5 77T1029 1782zm200-1129l-370 371 370 371-90 90-462-461 462-461z" />
	</symbol>
	<symbol id="svg_reload" viewBox="0 0 2048 2048">
		<path transform="scale(1, 1) translate(0, 0)"
			d="M1024 0q141 0 272 36.5t245 103 207.5 160 160 207.5 103 245 36.5 272-36.5 272-103 245-160 207.5-207.5 160-245 103-272 36.5q-172 0-330.5-55t-289-154.5-226-237.5T38 1297l123-34q40 145 123.5 265.5T482 1736t253 135.5 289 48.5q123 0 237.5-32t214-90.5T1657 1657t140.5-181.5T1888 1262t32-238q0-123-32-237.5t-90.5-214T1657 391t-181.5-140.5-214-90.5-237.5-32q-129 0-251 36T545.5 267 355 428.5 215 640h297v128H0V256h128v274q67-123 163-221t212.5-166.5T752 37t272-37z" />
	</symbol>
	<symbol id="svg_backspace" viewBox="0 0 2048 2048">
		<path transform="scale(1, 1) translate(0, 0)"
			d="M915 1299l274-275-274-275 90-90 275 274 275-274 90 90-274 275 274 275-90 90-275-274-275 274zM2048 256v1536H768L0 1024l768-768h1280zm-128 128H821l-640 640 640 640h1099V384z" />
	</symbol>
	<symbol id="svg_enter" viewBox="0 0 2048 2048">
		<path transform="scale(1, 1) translate(0, 0)"
			d="M1792 1152H475l466 467-90 90-621-621 621-621 90 90-466 467h1189V384h128v768z" />
	</symbol>
	<symbol id="svg_arrow-up" viewBox="0 0 2048 2048">
		<path transform="scale(1, 1) translate(0, 0)"
			d="M1619 941l-467-466v1317h-128V475L557 941l-90-90 621-621 621 621z" />
	</symbol>
	<symbol id="svg_sign-out" viewBox="0 0 2048 2048">
		<path
			d="M256 256h896v-128h-1024v1920h1024v-128h-896v-1664zM1935 1088l-487 -488l-80 80l345 344h-1073v128h1073l-345 344l80 80z" />
	</symbol>
	<symbol id="svg_document" viewBox="0 0 2048 2048">
		<path transform="scale(1, 1) translate(0, 0)"
			d="M1792 549v1499H256V0h987zm-512-37h293l-293-293v293zm384 1408V640h-512V128H384v1792h1280zm-768-512h256v384H896v-384zm-384-256h256v640H512v-640zm768-256h256v896h-256V896z" />
	</symbol>
	<symbol id="svg_table" viewBox="0 0 2048 2048">
		<path transform="scale(1, 1) translate(0, 0)"
			d="M0 0h2048v2048H0V0zm1920 640V128h-512v512h512zM768 1280h512V768H768v512zm512 128H768v512h512v-512zm-640-128V768H128v512h512zm128-640h512V128H768v512zm640 128v512h512V768h-512zM640 128H128v512h512V128zM128 1408v512h512v-512H128zm1280 512h512v-512h-512v512z" />
	</symbol>
	<symbol id="svg_database" viewBox="0 0 2048 2048">
		<path transform="scale(1, 1) translate(0, 0)"
			d="M1024 1024v128h128v256h256v128h512v128h-512v128H512v-128H0v-128h512v-128h256v-256h128v-128H0V384q0-27 10-50t27.5-40.5T78 266t50-10h1664q27 0 50 10t40.5 27.5T1910 334t10 50v640h-896zm0 512v-256H896v256H640v128h640v-128h-256zM128 896h1664V384H128v512zm1472-384q26 0 45 19t19 45-19 45-45 19-45-19-19-45 19-45 45-19z" />
	</symbol>
	<symbol id="svg_bin" viewBox="0 0 2048 2048">
		<path transform="scale(1, 1) translate(0, 0)"
			d="M1792 384h-128v1472q0 40-15 75t-41 61-61 41-75 15H448q-40 0-75-15t-61-41-41-61-15-75V384H128V256h512V128q0-27 10-50t27.5-40.5T718 10t50-10h384q27 0 50 10t40.5 27.5T1270 78t10 50v128h512v128zM768 256h384V128H768v128zm768 128H384v1472q0 26 19 45t45 19h1024q26 0 45-19t19-45V384zM768 1664H640V640h128v1024zm256 0H896V640h128v1024zm256 0h-128V640h128v1024z" />
	</symbol>
	<symbol id="svg_github" viewBox="0 0 1984 2048">
		<path transform="scale(4, 4) translate(0, 0)"
			d="M165.9 397.4c0 2-2.3 3.6-5.2 3.6-3.3.3-5.6-1.3-5.6-3.6 0-2 2.3-3.6 5.2-3.6 3-.3 5.6 1.3 5.6 3.6zm-31.1-4.5c-.7 2 1.3 4.3 4.3 4.9 2.6 1 5.6 0 6.2-2s-1.3-4.3-4.3-5.2c-2.6-.7-5.5.3-6.2 2.3zm44.2-1.7c-2.9.7-4.9 2.6-4.6 4.9.3 2 2.9 3.3 5.9 2.6 2.9-.7 4.9-2.6 4.6-4.6-.3-1.9-3-3.2-5.9-2.9zM244.8 8C106.1 8 0 113.3 0 252c0 110.9 69.8 205.8 169.5 239.2 12.8 2.3 17.3-5.6 17.3-12.1 0-6.2-.3-40.4-.3-61.4 0 0-70 15-84.7-29.8 0 0-11.4-29.1-27.8-36.6 0 0-22.9-15.7 1.6-15.4 0 0 24.9 2 38.6 25.8 21.9 38.6 58.6 27.5 72.9 20.9 2.3-16 8.8-27.1 16-33.7-55.9-6.2-112.3-14.3-112.3-110.5 0-27.5 7.6-41.3 23.6-58.9-2.6-6.5-11.1-33.3 2.6-67.9 20.9-6.5 69 27 69 27 20-5.6 41.5-8.5 62.8-8.5s42.8 2.9 62.8 8.5c0 0 48.1-33.6 69-27 13.7 34.7 5.2 61.4 2.6 67.9 16 17.7 25.8 31.5 25.8 58.9 0 96.5-58.9 104.2-114.8 110.5 9.2 7.9 17 22.9 17 46.4 0 33.7-.3 75.4-.3 83.6 0 6.5 4.6 14.4 17.3 12.1C428.2 457.8 496 362.9 496 252 496 113.3 383.5 8 244.8 8zM97.2 352.9c-1.3 1-1 3.3.7 5.2 1.6 1.6 3.9 2.3 5.2 1 1.3-1 1-3.3-.7-5.2-1.6-1.6-3.9-2.3-5.2-1zm-10.8-8.1c-.7 1.3.3 2.9 2.3 3.9 1.6 1 3.6.7 4.3-.7.7-1.3-.3-2.9-2.3-3.9-2-.6-3.6-.3-4.3.7zm32.4 35.6c-1.6 1.3-1 4.3 1.3 6.2 2.3 2.3 5.2 2.6 6.5 1 1.3-1.3.7-4.3-1.3-6.2-2.2-2.3-5.2-2.6-6.5-1zm-11.4-14.7c-1.6 1-1.6 3.6 0 5.9 1.6 2.3 4.3 3.3 5.6 2.3 1.6-1.3 1.6-3.9 0-6.2-1.4-2.3-4-3.3-5.6-2z" />
	</symbol>
	<symbol id="svg_info" viewBox="0 0 2048 2048">
		<path transform="scale(1, 1) translate(0, 0)"
			d="M960 1920q-133 0-255.5-34T475 1789.5t-194.5-150-150-194.5T34 1215.5 0 960t34-255.5T130.5 475t150-194.5 194.5-150T704.5 34 960 0t255.5 34 229.5 96.5 194.5 150 150 194.5 96.5 229.5 34 255.5-34 255.5-96.5 229.5-150 194.5-194.5 150-229.5 96.5-255.5 34zm0-1792q-115 0-221 30t-198.5 84T372 372 242 540.5t-84 199T128 960t30 220.5 84 199T372 1548t168.5 130 198.5 84 221 30q114 0 220.5-30t199-84 168.5-130 130-168.5 84-198.5 30-221q0-114-30-220.5t-84-199T1548 372t-168.5-130-199-84T960 128zm-64 640h128v640H896V768zm0-256h128v128H896V512z" />
	</symbol>
	<symbol id="svg_recommend" viewBox="0 0 2048 2048">
		<path transform="scale(1, 1) translate(0, 0)"
			d="M961 256q13 0 23 10l798 798q10 10 10 23 0 18-15 28L742 1778q27 36 68 57t86 21q40 0 75-15t61-41 41-61 15-75h128q0 66-25 124.5t-68.5 102-102 68.5-124.5 25q-78 0-147.5-36T634 1848l-296 190q-14 10-36 10-27 0-46-19L19 1792q-19-19-19-46 0-22 10-36L933 271q10-15 28-15zm703 192q-26 0-45-19t-19-45 19-45l256-256q19-19 45-19t45 19 19 45-19 45l-256 256q-19 19-45 19zm320 192q26 0 45 19t19 45-19 45-45 19h-192q-26 0-45-19t-19-45 19-45 45-19h192zm-640-320q-26 0-45-19t-19-45V64q0-26 19-45t45-19 45 19 19 45v192q0 26-19 45t-45 19z" />
	</symbol>
</svg>