	<svg xmlns="http://www.w3.org/2000/svg" xmlns:xlink="http://www.w3.org/1999/xlink">
		<symbol id="svg_smile" viewBox="256 -512 2248 2510">
			<path
				d="M1406 1869q159 0 306 -41t274.5 -116t232.5 -180t180 -232.5t116 -274.5t41 -306t-41 -306t-116 -274.5t-180 -232.5t-232.5 -180t-274.5 -116t-306 -41t-306 41t-274.5 116t-232.5 180t-180 232.5t-116 274.5t-41 306t41 306t116 274.5t180 232.5t232.5 180t274.5 116 t306 41zM1406 -287q139 0 267.5 36t240.5 101.5t203.5 157t157 203.5t101.5 240.5t36 267.5t-36 267.5t-101.5 240.5t-157 203.5t-203.5 157t-240.5 101.5t-267.5 36t-267.5 -36t-240.5 -101.5t-203.5 -157t-157 -203.5t-101.5 -240.5t-36 -267.5t36 -267.5t101.5 -240.5 t157 -203.5t203.5 -157t240.5 -101.5t267.5 -36zM1011 791q-23 0 -42.5 8.5t-34 23t-23 34t-8.5 42.5v143q0 22 8.5 42t23 34.5t34 23t42.5 8.5q22 0 41.5 -8.5t34.5 -23.5t23.5 -34.5t8.5 -41.5v-143q0 -22 -8.5 -41.5t-23.5 -34.5t-34.5 -23.5t-41.5 -8.5zM1801 1150 q22 0 42 -8.5t34.5 -23t23 -34.5t8.5 -42v-143q0 -23 -8.5 -42.5t-23 -34t-34.5 -23t-42 -8.5q-23 0 -42.5 8.5t-33.5 23.5t-22.5 34.5t-8.5 41.5v143q0 22 8.5 41.5t22.5 34.5t33.5 23.5t42.5 8.5zM1406 288q80 0 166 21.5t155 63.5q12 7 25.5 17t28 19.5t29 16t28.5 6.5 q29 0 50 -21.5t21 -50.5q0 -20 -7.5 -32.5t-21.5 -25.5q-39 -39 -97.5 -68.5t-124.5 -49.5t-132 -30t-120 -10t-120 10t-132 30t-124.5 49.5t-97.5 68.5q-14 13 -21.5 25.5t-7.5 32.5q0 29 21.5 50t50.5 21q13 0 28 -6.5t29.5 -15.5t28 -19t24.5 -17q69 -43 154.5 -64 t166.5 -21z" />
		</symbol>
		<symbol id="svg_meh" viewBox="256 -512 2248 2510">
			<path
				d="M1406 1869q159 0 306 -41t274.5 -116t232.5 -180t180 -232.5t116 -274.5t41 -306t-41 -306t-116 -274.5t-180 -232.5t-232.5 -180t-274.5 -116t-306 -41t-306 41t-274.5 116t-232.5 180t-180 232.5t-116 274.5t-41 306t41 306t116 274.5t180 232.5t232.5 180t274.5 116 t306 41zM1406 -287q139 0 267.5 36t240.5 101.5t203.5 157t157 203.5t101.5 240.5t36 267.5t-36 267.5t-101.5 240.5t-157 203.5t-203.5 157t-240.5 101.5t-267.5 36t-267.5 -36t-240.5 -101.5t-203.5 -157t-157 -203.5t-101.5 -240.5t-36 -267.5t36 -267.5t101.5 -240.5 t157 -203.5t203.5 -157t240.5 -101.5t267.5 -36zM1011 1150q22 0 41.5 -8.5t34.5 -23.5t23.5 -34.5t8.5 -41.5v-143q0 -22 -8.5 -41.5t-23.5 -34.5t-34.5 -23.5t-41.5 -8.5q-23 0 -42.5 8.5t-34 23t-23 34t-8.5 42.5v143q0 22 8.5 42t23 34.5t34 23t42.5 8.5zM1801 1150 q22 0 42 -8.5t34.5 -23t23 -34.5t8.5 -42v-143q0 -23 -8.5 -42.5t-23 -34t-34.5 -23t-42 -8.5q-23 0 -42.5 8.5t-33.5 23.5t-22.5 34.5t-8.5 41.5v143q0 22 8.5 41.5t22.5 34.5t33.5 23.5t42.5 8.5zM1909 360h-1006q-29 0 -50.5 21t-21.5 50q0 30 21 51t51 21h1006 q30 0 51 -21t21 -51q0 -29 -21.5 -50t-50.5 -21z" />
		</symbol>
		<symbol id="svg_frown" viewBox="256 -512 2248 2510">
			<path
				d="M1406 1869q159 0 306 -41t274.5 -116t232.5 -180t180 -232.5t116 -274.5t41 -306t-41 -306t-116 -274.5t-180 -232.5t-232.5 -180t-274.5 -116t-306 -41t-306 41t-274.5 116t-232.5 180t-180 232.5t-116 274.5t-41 306t41 306t116 274.5t180 232.5t232.5 180t274.5 116 t306 41zM1406 -287q139 0 267.5 36t240.5 101.5t203.5 157t157 203.5t101.5 240.5t36 267.5t-36 267.5t-101.5 240.5t-157 203.5t-203.5 157t-240.5 101.5t-267.5 36t-267.5 -36t-240.5 -101.5t-203.5 -157t-157 -203.5t-101.5 -240.5t-36 -267.5t36 -267.5t101.5 -240.5 t157 -203.5t203.5 -157t240.5 -101.5t267.5 -36zM975 253q0 20 9 33t23 26q34 30 84 52.5t105 37t110.5 22t99.5 7.5t99.5 -7.5t110.5 -22t105 -37t84 -52.5q14 -13 23 -26t9 -33q0 -29 -21.5 -50.5t-50.5 -21.5q-12 0 -20.5 3.5t-19.5 8.5l-14 7q-40 20 -74.5 36t-70 27.5 t-74 18t-86.5 6.5q-47 0 -84.5 -6t-71 -17t-67 -26t-71.5 -34l-25 -12q-11 -2 -20 -7t-20 -5q-30 0 -51 21t-21 51zM1119 827q0 -22 -8.5 -41.5t-23.5 -34.5t-34.5 -23.5t-41.5 -8.5q-23 0 -42.5 8.5t-34 23t-23 34t-8.5 42.5v144q0 22 8.5 42t23.5 34t34.5 22.5t41.5 8.5 t41.5 -8.5t34.5 -23t23.5 -34t8.5 -41.5v-144zM1801 1078q22 0 41.5 -8.5t34.5 -22.5t23.5 -34t8.5 -42v-144q0 -23 -8.5 -42.5t-23 -34t-34.5 -23t-42 -8.5q-23 0 -42.5 8.5t-33.5 23.5t-22.5 34.5t-8.5 41.5v144q0 22 8.5 41.5t23 34t34 23t41.5 8.5z" />
		</symbol>
		<symbol id="svg_thumbs-up" viewBox="256 -512 2248 2510">
			<path
				d="M2125 608q34 -19 60.5 -45.5t45 -59t28 -68.5t9.5 -75v-216q0 -78 -38 -144t-105 -105v-39q0 -60 -22.5 -112t-61.5 -91t-91.5 -61.5t-112.5 -22.5h-1581v1078h467l395 527v192q0 60 22.5 112t61.5 91t91.5 61.5t112.5 22.5q59 0 111.5 -22.5t91.5 -61.5t61.5 -91.5 t22.5 -111.5v-360q0 -37 -9 -71h153q60 0 112.5 -22.5t91.5 -61.5t61.5 -91.5t22.5 -112.5v-39zM1318 -287q-26 29 -41 66t-15 77v791q0 46 17 85.5t47 68.5t70 45.5t85 16.5q11 16 23 33t22.5 34t17 36t6.5 40v360q0 30 -11.5 56t-31 45.5t-45.5 31t-56 11.5t-56 -11.5 t-45.5 -31t-31 -45.5t-11.5 -56v-240l-467 -623h-395v-790h918zM2125 144v72h-791v-216h647q30 0 56 11.5t45.5 31t31 45.5t11.5 56zM2125 360q0 30 -11.5 56t-31 45.5t-45.5 30.5t-56 11h-647v-215h791v72zM1837 791h-405q-11 0 -26 -8t-23 -16q-26 -23 -37.5 -54.5 t-11.5 -65.5v-72h647v72q0 30 -11.5 56t-31 45.5t-45.5 31t-56 11.5zM1981 -144v72h-647v-72q0 -30 11.5 -56t31 -45.5t45.5 -30.5t56 -11h359q30 0 56 11t45.5 30.5t31 45.5t11.5 56z" />
		</symbol>
		<symbol id="svg_heart" viewBox="256 -512 2248 2510">
			<path
				d="M1904 1725q90 0 173 -23.5t155.5 -66t132 -102t102 -132t66 -155.5t23.5 -173q0 -133 -48.5 -250t-142.5 -211l-959 -959l-959 959q-94 94 -142.5 211t-48.5 250q0 90 23.5 173.5t65.5 155.5t102 132t132 102t155.5 65.5t173.5 23.5q77 0 145 -15.5t128.5 -44.5 t116 -71.5t108.5 -96.5q53 54 108.5 96.5t116 72t128.5 44.5t145 15zM1406 -144l857 858q72 72 110.5 164.5t38.5 194.5q0 105 -40 197.5t-109 161.5t-161.5 109t-197.5 40q-82 0 -146 -20t-118 -54.5t-102.5 -81t-99.5 -98.5l-32 -33l-29 30q-51 53 -100 99.5t-103.5 81.5 t-119 55.5t-146.5 20.5q-105 0 -197.5 -40t-161.5 -109t-109 -161.5t-40 -197.5q0 -102 38.5 -194.5t110.5 -164.5z" />
		</symbol>
		<symbol id="svg_navigation" viewBox="0 0 2048 2048">
			<path
				d="M1029 1920q123 0 236.5 -32t212.5 -90t180.5 -139.5t139.5 -180.5t90 -212.5t32 -236.5t-32 -236.5t-90 -212.5t-139.5 -180.5t-180.5 -139.5t-212.5 -90t-236.5 -32t-236.5 32t-212.5 90t-180.5 139.5t-139.5 180.5t-90 212.5t-32 236.5t32 236.5t90 212.5t139.5 180.5t180.5 139.5t212.5 90t236.5 32zM1029 266q105 0 202.5 27.5t182.5 77t154.5 119t119 154.5t77 182.5t27.5 202.5t-27.5 202.5t-77 182t-119.5 154.5t-154.5 119.5t-182 77t-202.5 27.5t-202.5 -27.5t-182.5 -77t-154.5 -119t-119 -154.5t-77 -182.5t-27.5 -202.5t27.5 -202.5t77 -182.5t119 -154.5t154.5 -119t182.5 -77t202.5 -27.5zM1229 1395l-370 -371l370 -371l-90 -90l-462 461l462 461z" />
		</symbol>
		<symbol id="svg_reload" viewBox="0 0 2048 2048">
			<path
				d="M1297 2010q166 -45 304 -140.5t237.5 -226t154.5 -289t55 -330.5q0 -141 -36.5 -272t-103 -245t-160 -207.5t-207.5 -160t-245 -103t-272 -36.5t-272 36.5t-245 103t-207.5 160t-160 207.5t-103 244.5t-36.5 272.5q0 140 37 272t105.5 248.5t166.5 212t221 163.5h-274v128h512v-512h-128v297q-117 -56 -211.5 -140.5t-161.5 -190t-103 -227.5t-36 -251q0 -123 32 -237.5t90.5 -214t140.5 -181.5t181.5 -140.5t213.5 -90.5t238 -32q123 0 237.5 32t214 90.5t181.5 140.5t140.5 181.5t90.5 213.5t32 238q0 150 -48.5 289t-135.5 253t-207.5 197.5t-265.5 123.5l34 123v0z" />
		</symbol>
		<symbol id="svg_backspace" viewBox="0 0 2048 2048">
			<path
				d="M915 749l274 275l-274 275l90 90l275 -274l275 274l90 -90l-274 -275l274 -275l-90 -90l-275 274l-275 -274zM2048 1792v-1536h-1280l-768 768l768 768h1280zM1920 1664h-1099l-640 -640l640 -640h1099v1280z" />
		</symbol>
		<symbol id="svg_enter" viewBox="0 0 2048 2048">
			<path d="M1536 1408h128v-512h-1061l338 -339l-90 -90l-493 493l493 493l90 -90l-338 -339h933v384v0z" />
		</symbol>
		<symbol id="svg_arrow-up" viewBox="0 0 2048 2048">
			<path d="M1619 1107l-467 466v-1317h-128v1317l-467 -466l-90 90l621 621l621 -621z" />
		</symbol>
		<symbol id="svg_sign-out" viewBox="0 0 2048 2048">
			<path
				d="M256 256h896v-128h-1024v1920h1024v-128h-896v-1664zM1935 1088l-487 -488l-80 80l345 344h-1073v128h1073l-345 344l80 80z" />
		</symbol>
	</svg>
